<svg width="48" height="48" viewBox="0 0 48 48" fill="none" xmlns="http://www.w3.org/2000/svg">
<mask id="path-1-inside-1_16_1455" fill="white">
<path d="M28.3117 23.6447C28.0709 23.6447 27.8473 23.5785 27.6487 23.472V23.4748C27.6487 23.8537 27.5014 24.2094 27.2343 24.4759C26.9671 24.7431 26.6116 24.8903 26.2332 24.8903C25.9889 24.8903 25.7625 24.8225 25.5617 24.7131C25.5415 25.0597 25.4029 25.3837 25.1558 25.6311C24.8886 25.8982 24.5331 26.0455 24.1545 26.0455C23.4022 26.0455 22.7913 25.4541 22.7473 24.7129C22.5145 24.8387 22.2513 24.9047 21.9799 24.8873C21.2398 24.8387 20.6603 24.1993 20.6603 23.4312V17.0646L19.9353 18.3206C19.6592 18.8009 19.1423 19.0992 18.5858 19.0992C18.3147 19.0992 18.0468 19.028 17.8095 18.8921C17.5141 18.7208 17.3028 18.4459 17.2149 18.117C17.1265 17.7878 17.1722 17.4436 17.3431 17.1486C17.3433 17.1486 19.715 13.0414 19.8597 12.7891C19.8769 12.7512 19.9259 12.6412 19.9676 12.5474C20.0075 12.4579 20.0416 12.366 20.0744 12.2737C20.7896 10.2544 22.5607 9.00004 24.6966 9.00004C27.4703 9.00004 29.7268 11.4469 29.7268 14.4546L29.727 22.229C29.727 22.6074 29.58 22.9629 29.3131 23.2303C29.0459 23.4975 28.6904 23.6447 28.3116 23.6447L28.3117 23.6447ZM24.6966 9.75218C22.8613 9.75218 21.3984 10.7888 20.7833 12.5252C20.744 12.6355 20.703 12.7457 20.6552 12.8532C20.5164 13.1644 20.5164 13.1644 20.4773 13.2091L20.4721 13.2047C20.2784 13.5701 19.7031 14.5664 17.9943 17.5251C17.9241 17.6464 17.9055 17.7873 17.9413 17.922C17.9776 18.0568 18.0645 18.1704 18.1849 18.2399C18.5586 18.4545 19.0703 18.316 19.2833 17.9449L20.7108 15.4734C20.7961 15.3262 20.9685 15.2539 21.1339 15.2986C21.2983 15.3427 21.4126 15.4918 21.4126 15.6619V23.4315C21.4126 23.798 21.6892 24.1144 22.0292 24.1368C22.2252 24.1472 22.408 24.0815 22.5454 23.9443C22.6702 23.8195 22.739 23.6531 22.739 23.4753V18.3939C22.739 18.1861 22.9075 18.0176 23.1153 18.0176C23.3231 18.0176 23.4915 18.1859 23.4915 18.3939L23.4913 24.6303C23.4913 24.9959 23.7889 25.2935 24.1545 25.2935C24.3321 25.2935 24.499 25.2247 24.6241 25.0998C24.7489 24.9747 24.8177 24.8079 24.8177 24.6303V18.3939C24.8177 18.1861 24.9859 18.0176 25.194 18.0176C25.4018 18.0176 25.5702 18.1858 25.5702 18.3939L25.57 23.4168V23.4752C25.57 23.8407 25.8675 24.1382 26.2334 24.1382C26.4108 24.1382 26.5772 24.0692 26.703 23.9438C26.8278 23.8192 26.8966 23.6529 26.8966 23.475V18.3936C26.8966 18.1858 27.0649 18.0174 27.2729 18.0174C27.4807 18.0174 27.6491 18.1856 27.6491 18.3936L27.6487 22.2292C27.6487 22.595 27.9462 22.8926 28.3116 22.8926C28.4895 22.8926 28.6558 22.8236 28.7807 22.699C28.906 22.5736 28.9746 22.4068 28.9746 22.2292L28.9748 14.4548C28.9748 11.8621 27.0557 9.75226 24.6966 9.75226L24.6966 9.75218Z"/>
</mask>
<path d="M28.3117 23.6447C28.0709 23.6447 27.8473 23.5785 27.6487 23.472V23.4748C27.6487 23.8537 27.5014 24.2094 27.2343 24.4759C26.9671 24.7431 26.6116 24.8903 26.2332 24.8903C25.9889 24.8903 25.7625 24.8225 25.5617 24.7131C25.5415 25.0597 25.4029 25.3837 25.1558 25.6311C24.8886 25.8982 24.5331 26.0455 24.1545 26.0455C23.4022 26.0455 22.7913 25.4541 22.7473 24.7129C22.5145 24.8387 22.2513 24.9047 21.9799 24.8873C21.2398 24.8387 20.6603 24.1993 20.6603 23.4312V17.0646L19.9353 18.3206C19.6592 18.8009 19.1423 19.0992 18.5858 19.0992C18.3147 19.0992 18.0468 19.028 17.8095 18.8921C17.5141 18.7208 17.3028 18.4459 17.2149 18.117C17.1265 17.7878 17.1722 17.4436 17.3431 17.1486C17.3433 17.1486 19.715 13.0414 19.8597 12.7891C19.8769 12.7512 19.9259 12.6412 19.9676 12.5474C20.0075 12.4579 20.0416 12.366 20.0744 12.2737C20.7896 10.2544 22.5607 9.00004 24.6966 9.00004C27.4703 9.00004 29.7268 11.4469 29.7268 14.4546L29.727 22.229C29.727 22.6074 29.58 22.9629 29.3131 23.2303C29.0459 23.4975 28.6904 23.6447 28.3116 23.6447L28.3117 23.6447ZM24.6966 9.75218C22.8613 9.75218 21.3984 10.7888 20.7833 12.5252C20.744 12.6355 20.703 12.7457 20.6552 12.8532C20.5164 13.1644 20.5164 13.1644 20.4773 13.2091L20.4721 13.2047C20.2784 13.5701 19.7031 14.5664 17.9943 17.5251C17.9241 17.6464 17.9055 17.7873 17.9413 17.922C17.9776 18.0568 18.0645 18.1704 18.1849 18.2399C18.5586 18.4545 19.0703 18.316 19.2833 17.9449L20.7108 15.4734C20.7961 15.3262 20.9685 15.2539 21.1339 15.2986C21.2983 15.3427 21.4126 15.4918 21.4126 15.6619V23.4315C21.4126 23.798 21.6892 24.1144 22.0292 24.1368C22.2252 24.1472 22.408 24.0815 22.5454 23.9443C22.6702 23.8195 22.739 23.6531 22.739 23.4753V18.3939C22.739 18.1861 22.9075 18.0176 23.1153 18.0176C23.3231 18.0176 23.4915 18.1859 23.4915 18.3939L23.4913 24.6303C23.4913 24.9959 23.7889 25.2935 24.1545 25.2935C24.3321 25.2935 24.499 25.2247 24.6241 25.0998C24.7489 24.9747 24.8177 24.8079 24.8177 24.6303V18.3939C24.8177 18.1861 24.9859 18.0176 25.194 18.0176C25.4018 18.0176 25.5702 18.1858 25.5702 18.3939L25.57 23.4168V23.4752C25.57 23.8407 25.8675 24.1382 26.2334 24.1382C26.4108 24.1382 26.5772 24.0692 26.703 23.9438C26.8278 23.8192 26.8966 23.6529 26.8966 23.475V18.3936C26.8966 18.1858 27.0649 18.0174 27.2729 18.0174C27.4807 18.0174 27.6491 18.1856 27.6491 18.3936L27.6487 22.2292C27.6487 22.595 27.9462 22.8926 28.3116 22.8926C28.4895 22.8926 28.6558 22.8236 28.7807 22.699C28.906 22.5736 28.9746 22.4068 28.9746 22.2292L28.9748 14.4548C28.9748 11.8621 27.0557 9.75226 24.6966 9.75226L24.6966 9.75218Z" fill="#4CAF4F"/>
<path d="M28.3117 23.6447V22.3114H33.0224L29.0104 24.7802L28.3117 23.6447ZM27.6487 23.472H26.3154V21.2442L28.2788 22.2969L27.6487 23.472ZM27.2343 24.4759L26.2915 23.5331L26.2927 23.5318L27.2343 24.4759ZM25.5617 24.7131L24.2307 24.6353L24.3534 22.5369L26.1994 23.5422L25.5617 24.7131ZM25.1558 25.6311L26.0991 26.5734L26.0986 26.5739L25.1558 25.6311ZM22.7473 24.7129L22.1133 23.5399L23.9542 22.545L24.0782 24.6339L22.7473 24.7129ZM21.9799 24.8873L21.8944 26.2178L21.8926 26.2177L21.9799 24.8873ZM20.6603 17.0646L19.5055 16.398L21.9936 12.0875V17.0646H20.6603ZM19.9353 18.3206L18.7794 17.6561L18.7806 17.654L19.9353 18.3206ZM17.8095 18.8921L17.1466 20.049L17.1408 20.0456L17.8095 18.8921ZM17.2149 18.117L18.5026 17.7713L18.503 17.7728L17.2149 18.117ZM17.3431 17.1486L16.1892 16.4805L16.5744 15.8153H17.3431V17.1486ZM19.8597 12.7891L21.0741 13.3397L21.0479 13.3975L21.0164 13.4525L19.8597 12.7891ZM19.9676 12.5474L18.7494 12.0056L18.7494 12.0056L19.9676 12.5474ZM20.0744 12.2737L21.3312 12.7188L21.3311 12.7192L20.0744 12.2737ZM29.7268 14.4546L28.3935 14.4547V14.4546H29.7268ZM29.727 22.229L31.0604 22.2289V22.229H29.727ZM29.3131 23.2303L30.2568 24.1722L30.2559 24.1731L29.3131 23.2303ZM28.3116 23.6447V24.9781H23.6009L27.6128 22.5092L28.3116 23.6447ZM24.6966 9.75218V8.41885H26.4642L25.9786 10.1185L24.6966 9.75218ZM20.7833 12.5252L22.0401 12.9704L22.0391 12.9733L20.7833 12.5252ZM20.6552 12.8532L21.8732 13.3954L21.8729 13.3961L20.6552 12.8532ZM20.4773 13.2091L21.4813 14.0864L20.6091 15.0847L19.6058 14.2182L20.4773 13.2091ZM20.4721 13.2047L19.294 12.5803L20.0774 11.102L21.3436 12.1956L20.4721 13.2047ZM17.9943 17.5251L19.1489 18.1919L19.1484 18.1929L17.9943 17.5251ZM17.9413 17.922L16.6538 18.2687L16.6527 18.2645L17.9413 17.922ZM18.1849 18.2399L17.5208 19.396L17.5183 19.3946L18.1849 18.2399ZM19.2833 17.9449L18.1269 17.2812L18.1287 17.278L19.2833 17.9449ZM20.7108 15.4734L19.5562 14.8066L19.557 14.8052L20.7108 15.4734ZM21.1339 15.2986L20.7889 16.5866L20.7856 16.5857L21.1339 15.2986ZM22.0292 24.1368L21.9588 25.4683L21.9502 25.4678L21.9416 25.4673L22.0292 24.1368ZM22.5454 23.9443L23.4882 24.8871L23.4874 24.888L22.5454 23.9443ZM23.4915 18.3939H24.8249V18.3939L23.4915 18.3939ZM23.4913 24.6303H22.158V24.6302L23.4913 24.6303ZM24.6241 25.0998L25.5678 26.0417L25.566 26.0435L24.6241 25.0998ZM25.5702 18.3939H26.9036V18.3939L25.5702 18.3939ZM25.57 23.4168H24.2367V23.4168L25.57 23.4168ZM26.703 23.9438L27.6449 24.8875L27.644 24.8884L26.703 23.9438ZM27.6491 18.3936H28.9825V18.3938L27.6491 18.3936ZM27.6487 22.2292H26.3153V22.229L27.6487 22.2292ZM28.7807 22.699L29.7235 23.6418L29.7226 23.6426L28.7807 22.699ZM28.9746 22.2292H27.6413V22.2291L28.9746 22.2292ZM28.9748 14.4548H30.3082V14.4549L28.9748 14.4548ZM24.6966 9.75226V11.0856H22.9289L23.4146 9.38597L24.6966 9.75226ZM28.3117 24.978C27.8207 24.978 27.3824 24.8421 27.0186 24.6471L28.2788 22.2969C28.296 22.3062 28.3069 22.3097 28.3113 22.3109C28.315 22.3119 28.3145 22.3114 28.3117 22.3114V24.978ZM28.982 23.472V23.4748H26.3154V23.472H28.982ZM28.982 23.4748C28.982 24.2062 28.695 24.9021 28.1758 25.42L26.2927 23.5318C26.3022 23.5223 26.307 23.5142 26.3097 23.5075C26.3125 23.5009 26.3154 23.4906 26.3154 23.4748H28.982ZM28.1771 25.4187C27.6597 25.9361 26.9649 26.2237 26.2332 26.2237V23.557C26.2485 23.557 26.2586 23.5542 26.2654 23.5514C26.2722 23.5486 26.281 23.5435 26.2915 23.5331L28.1771 25.4187ZM26.2332 26.2237C25.7358 26.2237 25.292 26.0845 24.9241 25.8841L26.1994 23.5422C26.2168 23.5516 26.2278 23.5552 26.2321 23.5564C26.2359 23.5574 26.2356 23.557 26.2332 23.557V26.2237ZM26.8928 24.791C26.8544 25.4473 26.5882 26.0838 26.0991 26.5734L24.2125 24.6887C24.2174 24.6838 24.2203 24.6794 24.2227 24.6739C24.2254 24.6679 24.2295 24.6557 24.2307 24.6353L26.8928 24.791ZM26.0986 26.5739C25.5811 27.0914 24.8863 27.3788 24.1545 27.3788V24.7121C24.17 24.7121 24.1802 24.7093 24.187 24.7065C24.1938 24.7037 24.2026 24.6987 24.213 24.6882L26.0986 26.5739ZM24.1545 27.3788C22.6825 27.3788 21.5013 26.2235 21.4163 24.792L24.0782 24.6339C24.0796 24.6565 24.0889 24.6764 24.1053 24.6921C24.1133 24.6997 24.1214 24.7046 24.1285 24.7075C24.1347 24.7101 24.1426 24.7121 24.1545 24.7121V27.3788ZM23.3812 25.8859C22.9505 26.1187 22.4399 26.2529 21.8944 26.2178L22.0654 23.5567C22.0654 23.5567 22.0682 23.5569 22.0753 23.5553C22.0828 23.5536 22.0958 23.5494 22.1133 23.5399L23.3812 25.8859ZM21.8926 26.2177C20.4122 26.1206 19.327 24.8617 19.327 23.4312H21.9936C21.9936 23.4763 22.01 23.511 22.0305 23.5337C22.0505 23.5557 22.0641 23.5566 22.0671 23.5568L21.8926 26.2177ZM19.327 23.4312V17.0646H21.9936V23.4312H19.327ZM21.8151 17.7311L21.0901 18.9871L18.7806 17.654L19.5055 16.398L21.8151 17.7311ZM21.0913 18.985C20.5761 19.8813 19.6171 20.4325 18.5858 20.4325V17.7659C18.6676 17.7659 18.7423 17.7205 18.7794 17.6561L21.0913 18.985ZM18.5858 20.4325C18.0816 20.4325 17.5853 20.3003 17.1467 20.049L18.4724 17.7352C18.5083 17.7558 18.5477 17.7659 18.5858 17.7659V20.4325ZM17.1408 20.0456C16.5422 19.6986 16.1065 19.1338 15.9267 18.4611L18.503 17.7728C18.5018 17.7682 18.4985 17.7602 18.4921 17.7518C18.4857 17.7435 18.4798 17.7395 18.4783 17.7386L17.1408 20.0456ZM15.9271 18.4626C15.7467 17.7905 15.8412 17.0816 16.1892 16.4805L18.4969 17.8168C18.4988 17.8135 18.5022 17.8059 18.5036 17.7951C18.505 17.7843 18.5038 17.7757 18.5026 17.7713L15.9271 18.4626ZM17.3431 15.8153C16.689 15.9867 16.1995 16.4631 16.1958 16.4693C16.1946 16.4713 16.1928 16.4744 16.1922 16.4754C16.1919 16.4759 16.1913 16.4769 16.1911 16.4772C16.191 16.4775 16.1907 16.4779 16.1907 16.478C16.1905 16.4783 16.1905 16.4782 16.191 16.4773C16.192 16.4758 16.1935 16.4731 16.1957 16.4693C16.2001 16.4617 16.2066 16.4504 16.2153 16.4353C16.2327 16.4053 16.2582 16.3611 16.2908 16.3047C16.3559 16.192 16.4491 16.0306 16.5614 15.8361C16.786 15.4472 17.087 14.9259 17.3925 14.3968C18.0046 13.3368 18.6321 12.2497 18.7031 12.1258L21.0164 13.4525C20.9427 13.5808 20.312 14.6736 19.7019 15.7302C19.3964 16.2594 19.0953 16.7807 18.8707 17.1697C18.7583 17.3643 18.6651 17.5257 18.5999 17.6386C18.5673 17.695 18.5417 17.7393 18.5242 17.7696C18.5155 17.7847 18.5087 17.7964 18.5041 17.8044C18.5018 17.8083 18.4999 17.8116 18.4985 17.814C18.4979 17.8151 18.4971 17.8165 18.4963 17.8178C18.496 17.8183 18.4952 17.8198 18.4942 17.8215C18.4935 17.8226 18.4916 17.8258 18.4904 17.8279C18.4867 17.8341 17.9971 18.3105 17.3431 18.482V15.8153ZM18.6454 12.2385C18.6601 12.2062 18.7066 12.1018 18.7494 12.0056L21.1859 13.0892C21.1453 13.1806 21.0938 13.2963 21.0741 13.3397L18.6454 12.2385ZM18.7494 12.0056C18.7679 11.9639 18.7884 11.9107 18.8177 11.8281L21.3311 12.7192C21.2949 12.8213 21.247 12.9518 21.1859 13.0892L18.7494 12.0056ZM18.8176 11.8285C19.7206 9.279 21.9936 7.66671 24.6966 7.66671V10.3334C23.1277 10.3334 21.8586 11.2298 21.3312 12.7188L18.8176 11.8285ZM24.6966 7.66671C28.3063 7.66671 31.0601 10.8143 31.0601 14.4546H28.3935C28.3935 12.0796 26.6343 10.3334 24.6966 10.3334V7.66671ZM31.0601 14.4546L31.0604 22.2289L28.3937 22.229L28.3935 14.4547L31.0601 14.4546ZM31.0604 22.229C31.0604 22.9602 30.7735 23.6546 30.2568 24.1722L28.3694 22.2884C28.38 22.2778 28.3851 22.2688 28.388 22.2618C28.3909 22.2548 28.3937 22.2445 28.3937 22.229H31.0604ZM30.2559 24.1731C29.7383 24.6907 29.0435 24.9781 28.3116 24.9781V22.3114C28.3273 22.3114 28.3375 22.3085 28.3443 22.3057C28.3511 22.3029 28.3599 22.2979 28.3703 22.2875L30.2559 24.1731ZM27.6128 22.5092L27.6129 22.5091L29.0104 24.7802L29.0104 24.7803L27.6128 22.5092ZM24.6966 11.0855C23.4289 11.0855 22.4676 11.7637 22.0401 12.9704L19.5265 12.08C20.3293 9.81402 22.2937 8.41885 24.6966 8.41885V11.0855ZM22.0391 12.9733C21.997 13.0913 21.9423 13.2402 21.8732 13.3954L19.4371 12.3109C19.4636 12.2512 19.4909 12.1797 19.5275 12.0771L22.0391 12.9733ZM21.8729 13.3961C21.8119 13.5331 21.7607 13.6487 21.7216 13.727C21.6973 13.7757 21.6579 13.8506 21.6009 13.9336C21.5431 14.0177 21.486 14.0811 21.4813 14.0864L19.4732 12.3318C19.4763 12.3283 19.4753 12.3294 19.4737 12.3313C19.4717 12.3336 19.4665 12.3397 19.4597 12.348C19.4527 12.3565 19.4438 12.3676 19.4338 12.3808C19.4237 12.3941 19.4135 12.4083 19.4032 12.4232C19.3823 12.4536 19.3662 12.4802 19.3548 12.5004C19.3441 12.5191 19.3376 12.5322 19.3361 12.5351C19.3346 12.5381 19.3356 12.5363 19.3401 12.5266C19.3445 12.5172 19.3507 12.5037 19.3596 12.484C19.3684 12.4645 19.379 12.4409 19.3921 12.4117C19.4051 12.3826 19.42 12.3493 19.4374 12.3102L21.8729 13.3961ZM19.6058 14.2182L19.6006 14.2138L21.3436 12.1956L21.3488 12.2L19.6058 14.2182ZM21.6502 13.829C21.4415 14.2228 20.8458 15.2539 19.1489 18.1919L16.8397 16.8582C18.5604 13.8789 19.1153 12.9174 19.294 12.5803L21.6502 13.829ZM19.1484 18.1929C19.255 18.0085 19.2848 17.7861 19.2299 17.5796L16.6527 18.2645C16.5262 17.7885 16.5932 17.2843 16.8403 16.8573L19.1484 18.1929ZM19.2288 17.5754C19.1739 17.3716 19.0391 17.1934 18.8515 17.0851L17.5183 19.3946C17.09 19.1473 16.7812 18.742 16.6538 18.2687L19.2288 17.5754ZM18.849 17.0837C18.6972 16.9965 18.5496 16.9971 18.4477 17.0245C18.3462 17.0519 18.216 17.1259 18.1269 17.2812L20.4397 18.6086C19.8586 19.6211 18.5306 19.976 17.5208 19.396L18.849 17.0837ZM18.1287 17.278L19.5562 14.8066L21.8653 16.1403L20.4379 18.6118L18.1287 17.278ZM19.557 14.8052C19.9421 14.1403 20.7282 13.8075 21.4822 14.0116L20.7856 16.5857C21.2088 16.7002 21.65 16.5121 21.8645 16.1417L19.557 14.8052ZM21.4789 14.0107C22.227 14.2111 22.7459 14.889 22.7459 15.6619H20.0793C20.0793 16.0947 20.3697 16.4743 20.7889 16.5866L21.4789 14.0107ZM22.7459 15.6619V23.4315H20.0793V15.6619H22.7459ZM22.7459 23.4315C22.7459 23.2795 22.6897 23.1414 22.5973 23.0357C22.505 22.9302 22.3422 22.8212 22.1167 22.8064L21.9416 25.4673C20.8192 25.3934 20.0793 24.4157 20.0793 23.4315H22.7459ZM22.0996 22.8053C21.9421 22.797 21.7496 22.8547 21.6034 23.0007L23.4874 24.888C23.0664 25.3082 22.5083 25.4974 21.9588 25.4683L22.0996 22.8053ZM21.6026 23.0015C21.476 23.1281 21.4057 23.3014 21.4057 23.4753H24.0724C24.0724 24.0048 23.8645 24.5109 23.4882 24.8871L21.6026 23.0015ZM21.4057 23.4753V18.3939H24.0724V23.4753H21.4057ZM21.4057 18.3939C21.4057 17.4497 22.1711 16.6843 23.1153 16.6843V19.351C23.6439 19.351 24.0724 18.9225 24.0724 18.3939H21.4057ZM23.1153 16.6843C24.0589 16.6843 24.8249 17.4489 24.8249 18.3939H22.1582C22.1582 18.9228 22.5872 19.351 23.1153 19.351V16.6843ZM24.8249 18.3939L24.8246 24.6303L22.158 24.6302L22.1582 18.3938L24.8249 18.3939ZM24.8246 24.6303C24.8246 24.2595 24.5252 23.9601 24.1545 23.9601V26.6268C23.0525 26.6268 22.158 25.7323 22.158 24.6303H24.8246ZM24.1545 23.9601C23.981 23.9601 23.8084 24.03 23.6822 24.1561L25.566 26.0435C25.1895 26.4193 24.6833 26.6268 24.1545 26.6268V23.9601ZM23.6804 24.1579C23.5543 24.2842 23.4844 24.4567 23.4844 24.6303H26.1511C26.1511 25.1591 25.9436 25.6652 25.5678 26.0417L23.6804 24.1579ZM23.4844 24.6303V18.3939H26.1511V24.6303H23.4844ZM23.4844 18.3939C23.4844 17.4503 24.249 16.6843 25.194 16.6843V19.351C25.7229 19.351 26.1511 18.9219 26.1511 18.3939H23.4844ZM25.194 16.6843C26.1376 16.6843 26.9036 17.4489 26.9036 18.3939H24.2369C24.2369 18.9228 24.6659 19.351 25.194 19.351V16.6843ZM26.9036 18.3939L26.9033 23.4169L24.2367 23.4168L24.2369 18.3938L26.9036 18.3939ZM26.9033 23.4168V23.4752H24.2367V23.4168H26.9033ZM26.9033 23.4752C26.9033 23.1036 26.6033 22.8049 26.2334 22.8049V25.4715C25.1318 25.4715 24.2367 24.5777 24.2367 23.4752H26.9033ZM26.2334 22.8049C26.0563 22.8049 25.8847 22.8769 25.7619 22.9993L27.644 24.8884C27.2696 25.2614 26.7654 25.4715 26.2334 25.4715V22.8049ZM25.7611 23.0001C25.6335 23.1274 25.5633 23.3014 25.5633 23.475H28.23C28.23 24.0044 28.0222 24.511 27.6449 24.8875L25.7611 23.0001ZM25.5633 23.475V18.3936H28.23V23.475H25.5633ZM25.5633 18.3936C25.5633 17.45 26.3279 16.684 27.2729 16.684V19.3507C27.8018 19.3507 28.23 18.9217 28.23 18.3936H25.5633ZM27.2729 16.684C28.2165 16.684 28.9825 17.4487 28.9825 18.3936H26.3158C26.3158 18.9225 26.7448 19.3507 27.2729 19.3507V16.684ZM28.9825 18.3938L28.982 22.2293L26.3153 22.229L26.3158 18.3935L28.9825 18.3938ZM28.982 22.2292C28.982 21.8593 28.6832 21.5593 28.3116 21.5593V24.2259C27.2092 24.2259 26.3153 23.3308 26.3153 22.2292H28.982ZM28.3116 21.5593C28.1367 21.5593 27.9642 21.6301 27.8388 21.7553L29.7226 23.6426C29.3475 24.0171 28.8423 24.2259 28.3116 24.2259V21.5593ZM27.8379 21.7561C27.7109 21.8831 27.6413 22.0564 27.6413 22.2292H30.3079C30.3079 22.7572 30.1011 23.2641 29.7235 23.6418L27.8379 21.7561ZM27.6413 22.2291L27.6415 14.4548L30.3082 14.4549L30.3079 22.2292L27.6413 22.2291ZM27.6415 14.4548C27.6415 12.4769 26.2034 11.0856 24.6966 11.0856V8.41893C27.908 8.41893 30.3082 11.2472 30.3082 14.4548H27.6415ZM23.4146 9.38597L23.4146 9.38589L25.9786 10.1185L25.9786 10.1186L23.4146 9.38597Z" fill="#4CAF4F" mask="url(#path-1-inside-1_16_1455)"/>
<mask id="path-3-inside-2_16_1455" fill="white">
<path d="M13.5291 29.0481L18.9888 25.7728C19.6471 25.3775 20.4941 25.5455 20.9162 26.1554C21.0703 26.3776 21.149 26.6365 21.1613 26.9002C21.3648 26.7939 21.5863 26.7362 21.8117 26.7362C21.9272 26.7362 22.0431 26.7506 22.1576 26.7791C22.5244 26.8707 22.8335 27.0999 23.0279 27.4241C23.2225 27.7488 23.2793 28.1292 23.1877 28.4956C23.1031 28.8347 22.8969 29.12 22.6102 29.3158C22.8107 29.434 22.9836 29.5954 23.1066 29.8009C23.3012 30.1255 23.358 30.5058 23.2666 30.8726C23.1749 31.239 22.9457 31.5481 22.621 31.7429L22.6192 31.7441C22.8161 31.8622 22.986 32.0219 23.1076 32.2243C23.3024 32.5489 23.3592 32.9294 23.2675 33.2962C23.1756 33.6628 22.9464 33.9719 22.6222 34.1665L15.9558 38.1658C14.7116 38.912 13.2733 39.1695 11.9064 38.8903C10.5272 38.6085 9.38497 37.8158 8.69046 36.658C7.59138 34.8262 7.75609 32.662 9.11949 31.0102C9.18192 30.9348 9.24341 30.858 9.29925 30.7784C9.35839 30.6943 9.42742 30.5953 9.45098 30.5614C9.5921 30.3093 11.8946 26.1609 11.8946 26.1609C12.1272 25.7413 12.563 25.5038 13.0125 25.504C13.2222 25.504 13.4349 25.5556 13.6312 25.6645C13.8682 25.7969 14.0673 25.9898 14.2065 26.2224C14.4928 26.6995 14.5029 27.2965 14.2334 27.7797L13.5291 29.0481ZM13.5618 26.6092C13.4888 26.4874 13.3884 26.3903 13.2657 26.3215C13.012 26.1811 12.6925 26.2725 12.5528 26.5253C10.905 29.4938 10.3434 30.5055 10.1266 30.8655L10.1315 30.8667C10.1134 30.927 10.1134 30.927 9.91502 31.2104C9.84764 31.3063 9.77437 31.3984 9.69969 31.4891C8.52732 32.9095 8.39119 34.697 9.33521 36.271C9.91997 37.2459 10.8864 37.9143 12.0566 38.1532C13.2395 38.3938 14.4863 38.1699 15.5684 37.5207L22.2355 33.5212C22.3876 33.43 22.4951 33.2851 22.538 33.1134C22.5808 32.9418 22.5542 32.7635 22.4628 32.6113C22.2748 32.298 21.8665 32.195 21.5532 32.3837L18.2642 34.3569C18.0861 34.4638 17.8548 34.4063 17.748 34.228C17.6411 34.0499 17.6988 33.8187 17.8769 33.7118L21.1661 31.7386L22.2343 31.0978C22.3865 31.0064 22.4941 30.8615 22.537 30.6902C22.5799 30.5185 22.5533 30.3399 22.4619 30.1879C22.2736 29.8744 21.8653 29.7723 21.5522 29.9604L17.1948 32.5743C17.0163 32.6815 16.7856 32.6236 16.6787 32.4455C16.5717 32.2673 16.6296 32.0362 16.8075 31.9293L22.1554 28.7211C22.3076 28.6297 22.415 28.4851 22.4579 28.3133C22.5007 28.1418 22.4741 27.9635 22.3829 27.8113C22.2918 27.6593 22.1469 27.5519 21.9751 27.509C21.8024 27.4661 21.6248 27.4927 21.4731 27.5837L20.4831 28.1776L16.1252 30.7918C15.9467 30.8993 15.7158 30.8413 15.6091 30.663C15.5021 30.4849 15.5601 30.2537 15.7379 30.1468L20.0953 27.5328C20.2475 27.4414 20.3552 27.2965 20.398 27.1252C20.4452 26.9372 20.4094 26.745 20.2977 26.5838C20.104 26.3037 19.6898 26.2292 19.3758 26.4179L12.7136 30.4147C12.5678 30.5018 12.3809 30.4806 12.2587 30.3626C12.1362 30.2443 12.1086 30.0584 12.1911 29.9098L13.5764 27.4138C13.7154 27.1643 13.71 26.8561 13.5618 26.6092Z"/>
</mask>
<path d="M13.5291 29.0481L18.9888 25.7728C19.6471 25.3775 20.4941 25.5455 20.9162 26.1554C21.0703 26.3776 21.149 26.6365 21.1613 26.9002C21.3648 26.7939 21.5863 26.7362 21.8117 26.7362C21.9272 26.7362 22.0431 26.7506 22.1576 26.7791C22.5244 26.8707 22.8335 27.0999 23.0279 27.4241C23.2225 27.7488 23.2793 28.1292 23.1877 28.4956C23.1031 28.8347 22.8969 29.12 22.6102 29.3158C22.8107 29.434 22.9836 29.5954 23.1066 29.8009C23.3012 30.1255 23.358 30.5058 23.2666 30.8726C23.1749 31.239 22.9457 31.5481 22.621 31.7429L22.6192 31.7441C22.8161 31.8622 22.986 32.0219 23.1076 32.2243C23.3024 32.5489 23.3592 32.9294 23.2675 33.2962C23.1756 33.6628 22.9464 33.9719 22.6222 34.1665L15.9558 38.1658C14.7116 38.912 13.2733 39.1695 11.9064 38.8903C10.5272 38.6085 9.38497 37.8158 8.69046 36.658C7.59138 34.8262 7.75609 32.662 9.11949 31.0102C9.18192 30.9348 9.24341 30.858 9.29925 30.7784C9.35839 30.6943 9.42742 30.5953 9.45098 30.5614C9.5921 30.3093 11.8946 26.1609 11.8946 26.1609C12.1272 25.7413 12.563 25.5038 13.0125 25.504C13.2222 25.504 13.4349 25.5556 13.6312 25.6645C13.8682 25.7969 14.0673 25.9898 14.2065 26.2224C14.4928 26.6995 14.5029 27.2965 14.2334 27.7797L13.5291 29.0481ZM13.5618 26.6092C13.4888 26.4874 13.3884 26.3903 13.2657 26.3215C13.012 26.1811 12.6925 26.2725 12.5528 26.5253C10.905 29.4938 10.3434 30.5055 10.1266 30.8655L10.1315 30.8667C10.1134 30.927 10.1134 30.927 9.91502 31.2104C9.84764 31.3063 9.77437 31.3984 9.69969 31.4891C8.52732 32.9095 8.39119 34.697 9.33521 36.271C9.91997 37.2459 10.8864 37.9143 12.0566 38.1532C13.2395 38.3938 14.4863 38.1699 15.5684 37.5207L22.2355 33.5212C22.3876 33.43 22.4951 33.2851 22.538 33.1134C22.5808 32.9418 22.5542 32.7635 22.4628 32.6113C22.2748 32.298 21.8665 32.195 21.5532 32.3837L18.2642 34.3569C18.0861 34.4638 17.8548 34.4063 17.748 34.228C17.6411 34.0499 17.6988 33.8187 17.8769 33.7118L21.1661 31.7386L22.2343 31.0978C22.3865 31.0064 22.4941 30.8615 22.537 30.6902C22.5799 30.5185 22.5533 30.3399 22.4619 30.1879C22.2736 29.8744 21.8653 29.7723 21.5522 29.9604L17.1948 32.5743C17.0163 32.6815 16.7856 32.6236 16.6787 32.4455C16.5717 32.2673 16.6296 32.0362 16.8075 31.9293L22.1554 28.7211C22.3076 28.6297 22.415 28.4851 22.4579 28.3133C22.5007 28.1418 22.4741 27.9635 22.3829 27.8113C22.2918 27.6593 22.1469 27.5519 21.9751 27.509C21.8024 27.4661 21.6248 27.4927 21.4731 27.5837L20.4831 28.1776L16.1252 30.7918C15.9467 30.8993 15.7158 30.8413 15.6091 30.663C15.5021 30.4849 15.5601 30.2537 15.7379 30.1468L20.0953 27.5328C20.2475 27.4414 20.3552 27.2965 20.398 27.1252C20.4452 26.9372 20.4094 26.745 20.2977 26.5838C20.104 26.3037 19.6898 26.2292 19.3758 26.4179L12.7136 30.4147C12.5678 30.5018 12.3809 30.4806 12.2587 30.3626C12.1362 30.2443 12.1086 30.0584 12.1911 29.9098L13.5764 27.4138C13.7154 27.1643 13.71 26.8561 13.5618 26.6092Z" fill="#4CAF4F"/>
<path d="M13.5291 29.0481L14.215 30.1915L9.94774 32.7514L12.3634 28.4008L13.5291 29.0481ZM18.9888 25.7728L19.6753 26.9158L19.6747 26.9162L18.9888 25.7728ZM20.9162 26.1554L19.8206 26.9153L19.8199 26.9143L20.9162 26.1554ZM21.1613 26.9002L21.7782 28.0822L19.9263 29.0488L19.8294 26.962L21.1613 26.9002ZM22.1576 26.7791L22.4797 25.4852L22.4808 25.4855L22.1576 26.7791ZM23.0279 27.4241L24.1714 26.7384L24.1715 26.7386L23.0279 27.4241ZM23.1877 28.4956L21.894 28.1729L21.8942 28.1721L23.1877 28.4956ZM22.6102 29.3158L21.9328 30.4642L20.1253 29.398L21.8583 28.2146L22.6102 29.3158ZM23.1066 29.8009L21.963 30.4864L21.9626 30.4857L23.1066 29.8009ZM23.2666 30.8726L24.5603 31.195L24.5601 31.1962L23.2666 30.8726ZM22.621 31.7429L21.9146 30.6121L21.9247 30.6058L21.9348 30.5998L22.621 31.7429ZM22.6192 31.7441L21.9338 32.8878L20.0647 31.7677L21.9128 30.6133L22.6192 31.7441ZM23.1076 32.2243L24.2505 31.5377L24.2508 31.5381L23.1076 32.2243ZM23.2675 33.2962L24.5611 33.6194L24.5609 33.6204L23.2675 33.2962ZM22.6222 34.1665L23.3086 35.3097L23.3082 35.3099L22.6222 34.1665ZM15.9558 38.1658L16.6418 39.3092L16.6416 39.3093L15.9558 38.1658ZM11.9064 38.8903L11.6395 40.1967L11.6395 40.1967L11.9064 38.8903ZM8.69046 36.658L9.83378 35.972L9.83386 35.9721L8.69046 36.658ZM9.11949 31.0102L8.09119 30.1615L8.09259 30.1598L9.11949 31.0102ZM9.29925 30.7784L8.20753 30.0129L8.20853 30.0115L9.29925 30.7784ZM9.45098 30.5614L10.6144 31.2127L10.5829 31.269L10.5462 31.3219L9.45098 30.5614ZM11.8946 26.1609L13.0608 26.8072L13.0604 26.808L11.8946 26.1609ZM13.0125 25.504L13.0125 26.8374L13.0118 26.8374L13.0125 25.504ZM13.6312 25.6645L14.2779 24.4985L14.2815 24.5005L13.6312 25.6645ZM14.2065 26.2224L13.0632 26.9084L13.0626 26.9073L14.2065 26.2224ZM14.2334 27.7797L13.0677 27.1324L13.069 27.1301L14.2334 27.7797ZM13.5618 26.6092L12.4186 27.2953L12.4183 27.2948L13.5618 26.6092ZM13.2657 26.3215L13.9113 25.1549L13.9176 25.1584L13.2657 26.3215ZM12.5528 26.5253L13.7198 27.1702L13.7186 27.1724L12.5528 26.5253ZM10.1266 30.8655L9.81756 32.1625L8.04373 31.7399L8.98433 30.1777L10.1266 30.8655ZM10.1315 30.8667L10.4406 29.5696L11.8155 29.8972L11.4084 31.2507L10.1315 30.8667ZM9.91502 31.2104L11.0074 31.9749L11.0059 31.977L9.91502 31.2104ZM9.69969 31.4891L10.729 32.3366L10.728 32.3378L9.69969 31.4891ZM9.33521 36.271L8.19179 36.9569L8.19177 36.9568L9.33521 36.271ZM12.0566 38.1532L11.7909 39.4598L11.7899 39.4596L12.0566 38.1532ZM15.5684 37.5207L14.8824 36.3773L14.8825 36.3773L15.5684 37.5207ZM22.2355 33.5212L21.5495 32.3778L21.5502 32.3774L22.2355 33.5212ZM22.538 33.1134L21.2443 32.7904L21.2444 32.79L22.538 33.1134ZM22.4628 32.6113L21.3198 33.2978L21.3195 33.2973L22.4628 32.6113ZM21.5532 32.3837L22.241 33.5259L22.2391 33.5271L21.5532 32.3837ZM18.2642 34.3569L17.5778 33.2138L17.5783 33.2135L18.2642 34.3569ZM17.748 34.228L18.8911 33.5415L18.8922 33.5433L17.748 34.228ZM17.8769 33.7118L17.1905 32.5687L17.191 32.5684L17.8769 33.7118ZM21.1661 31.7386L21.852 32.882L21.852 32.882L21.1661 31.7386ZM22.2343 31.0978L22.9208 32.2408L22.9202 32.2412L22.2343 31.0978ZM22.537 30.6902L23.8307 31.0132L23.8304 31.014L22.537 30.6902ZM22.4619 30.1879L21.3193 30.8752L21.3187 30.8742L22.4619 30.1879ZM21.5522 29.9604L22.2386 31.1035L22.2381 31.1037L21.5522 29.9604ZM17.1948 32.5743L16.5086 31.4311L16.5089 31.4309L17.1948 32.5743ZM16.6787 32.4455L17.8217 31.759L17.8217 31.759L16.6787 32.4455ZM16.8075 31.9293L16.1204 30.7866L16.1216 30.7859L16.8075 31.9293ZM22.1554 28.7211L22.8419 29.8642L22.8413 29.8645L22.1554 28.7211ZM22.4579 28.3133L21.1642 27.9904L21.1643 27.99L22.4579 28.3133ZM22.3829 27.8113L23.5263 27.1253L23.5267 27.126L22.3829 27.8113ZM21.9751 27.509L22.2964 26.215L22.2981 26.2154L21.9751 27.509ZM21.4731 27.5837L20.7871 26.4403L20.7876 26.4401L21.4731 27.5837ZM20.4831 28.1776L21.1691 29.321L21.169 29.321L20.4831 28.1776ZM16.1252 30.7918L15.4379 29.6493L15.4394 29.6485L16.1252 30.7918ZM15.6091 30.663L16.7521 29.9765L16.7532 29.9783L15.6091 30.663ZM15.7379 30.1468L15.0508 29.0041L15.052 29.0034L15.7379 30.1468ZM20.0953 27.5328L20.7818 28.6758L20.7812 28.6762L20.0953 27.5328ZM20.398 27.1252L19.1046 26.8014L19.1047 26.8011L20.398 27.1252ZM20.2977 26.5838L19.2018 27.3433L19.2009 27.342L20.2977 26.5838ZM19.3758 26.4179L20.0625 27.5608L20.0617 27.5613L19.3758 26.4179ZM12.7136 30.4147L13.3995 31.558L13.3977 31.5591L12.7136 30.4147ZM12.2587 30.3626L11.3326 31.3219L11.3326 31.3218L12.2587 30.3626ZM12.1911 29.9098L11.0251 29.263L11.0253 29.2627L12.1911 29.9098ZM13.5764 27.4138L12.4106 26.7668L12.4116 26.7649L13.5764 27.4138ZM13.5291 29.0481L12.8432 27.9047L18.3029 24.6294L18.9888 25.7728L19.6747 26.9162L14.215 30.1915L13.5291 29.0481ZM18.9888 25.7728L18.3023 24.6298C19.5288 23.8932 21.1678 24.1761 22.0126 25.3966L20.9162 26.1554L19.8199 26.9143C19.8183 26.9119 19.8107 26.9008 19.7815 26.895C19.7515 26.889 19.7135 26.8929 19.6753 26.9158L18.9888 25.7728ZM20.9162 26.1554L22.0119 25.3956C22.3235 25.8449 22.4706 26.3517 22.4932 26.8383L21.1613 26.9002L19.8294 26.962C19.8275 26.9213 19.8171 26.9102 19.8206 26.9153L20.9162 26.1554ZM21.1613 26.9002L20.5443 25.7182C20.9244 25.5198 21.3562 25.4028 21.8117 25.4028V26.7362V28.0695C21.8132 28.0695 21.8118 28.0693 21.8069 28.0705C21.8017 28.0718 21.792 28.075 21.7782 28.0822L21.1613 26.9002ZM21.8117 26.7362V25.4028C22.0382 25.4028 22.2622 25.4311 22.4797 25.4852L22.1576 26.7791L21.8355 28.0729C21.824 28.07 21.8162 28.0695 21.8117 28.0695V26.7362ZM22.1576 26.7791L22.4808 25.4855C23.1912 25.663 23.7952 26.1111 24.1714 26.7384L23.0279 27.4241L21.8844 28.1098C21.8767 28.097 21.8693 28.0899 21.8634 28.0855C21.8575 28.0812 21.8487 28.0762 21.8344 28.0726L22.1576 26.7791ZM23.0279 27.4241L24.1715 26.7386C24.5473 27.3655 24.6588 28.1088 24.4811 28.8192L23.1877 28.4956L21.8942 28.1721C21.8977 28.1581 21.8975 28.1482 21.8964 28.1409C21.8953 28.1335 21.8924 28.1232 21.8843 28.1096L23.0279 27.4241ZM23.1877 28.4956L24.4813 28.8184C24.3138 29.4901 23.9051 30.0461 23.3621 30.4169L22.6102 29.3158L21.8583 28.2146C21.8752 28.2031 21.8834 28.1934 21.887 28.1884C21.8902 28.1837 21.8924 28.1794 21.894 28.1729L23.1877 28.4956ZM22.6102 29.3158L23.2876 28.1674C23.657 28.3852 24.0003 28.6979 24.2506 29.116L23.1066 29.8009L21.9626 30.4857C21.964 30.488 21.9643 30.4877 21.9612 30.4847C21.9577 30.4813 21.949 30.4738 21.9328 30.4642L22.6102 29.3158ZM23.1066 29.8009L24.2502 29.1154C24.6261 29.7424 24.7373 30.4851 24.5603 31.195L23.2666 30.8726L21.9728 30.5502C21.9765 30.5355 21.9762 30.5252 21.9751 30.5178C21.974 30.5104 21.9712 30.5 21.963 30.4864L23.1066 29.8009ZM23.2666 30.8726L24.5601 31.1962C24.3824 31.9064 23.9341 32.5099 23.3073 32.8861L22.621 31.7429L21.9348 30.5998C21.9484 30.5916 21.9558 30.5838 21.9603 30.5778C21.9647 30.5718 21.9696 30.563 21.9731 30.5491L23.2666 30.8726ZM22.621 31.7429L23.3275 32.8738L23.3256 32.8749L22.6192 31.7441L21.9128 30.6133L21.9146 30.6121L22.621 31.7429ZM22.6192 31.7441L23.3045 30.6004C23.6672 30.8178 24.0037 31.1269 24.2505 31.5377L23.1076 32.2243L21.9646 32.9109C21.9656 32.9126 21.9657 32.9119 21.9623 32.9086C21.9585 32.905 21.9498 32.8974 21.9338 32.8878L22.6192 31.7441ZM23.1076 32.2243L24.2508 31.5381C24.6273 32.1655 24.7386 32.909 24.5611 33.6194L23.2675 33.2962L21.974 32.973C21.9776 32.9586 21.9773 32.9484 21.9762 32.9412C21.9752 32.934 21.9724 32.9238 21.9643 32.9104L23.1076 32.2243ZM23.2675 33.2962L24.5609 33.6204C24.383 34.33 23.9352 34.9334 23.3086 35.3097L22.6222 34.1665L21.9359 33.0234C21.949 33.0155 21.9564 33.0078 21.961 33.0017C21.9655 32.9956 21.9706 32.9865 21.9742 32.9721L23.2675 33.2962ZM22.6222 34.1665L23.3082 35.3099L16.6418 39.3092L15.9558 38.1658L15.2699 37.0225L21.9363 33.0232L22.6222 34.1665ZM15.9558 38.1658L16.6416 39.3093C15.1241 40.2193 13.3475 40.5455 11.6395 40.1967L11.9064 38.8903L12.1732 37.5839C13.1991 37.7935 14.2991 37.6046 15.2701 37.0223L15.9558 38.1658ZM11.9064 38.8903L11.6395 40.1967C9.91181 39.8437 8.44298 38.8374 7.54707 37.3439L8.69046 36.658L9.83386 35.9721C10.327 36.7941 11.1425 37.3734 12.1733 37.584L11.9064 38.8903ZM8.69046 36.658L7.54715 37.344C6.15629 35.026 6.36972 32.2471 8.09119 30.1615L9.11949 31.0102L10.1478 31.859C9.14246 33.077 9.02647 34.6265 9.83378 35.972L8.69046 36.658ZM9.11949 31.0102L8.09259 30.1598C8.14776 30.0932 8.18249 30.0487 8.20753 30.0129L9.29925 30.7784L10.391 31.5439C10.3043 31.6674 10.2161 31.7765 10.1464 31.8607L9.11949 31.0102ZM9.29925 30.7784L8.20853 30.0115C8.26616 29.9296 8.3337 29.8327 8.35579 29.8009L9.45098 30.5614L10.5462 31.3219C10.5211 31.3579 10.4506 31.459 10.39 31.5453L9.29925 30.7784ZM9.45098 30.5614L8.28754 29.9101C8.35657 29.7868 8.96553 28.6902 9.55999 27.6194C9.8566 27.0852 10.1488 26.5588 10.3669 26.1659C10.4759 25.9695 10.5664 25.8065 10.6296 25.6926C10.6612 25.6356 10.686 25.5909 10.7029 25.5605C10.7114 25.5453 10.7179 25.5336 10.7222 25.5257C10.7244 25.5218 10.726 25.5188 10.7272 25.5169C10.7277 25.5159 10.7281 25.5151 10.7284 25.5146C10.7285 25.5143 10.7286 25.5142 10.7287 25.514C10.7288 25.514 10.7288 25.5139 10.7288 25.5139C10.7288 25.5139 10.7288 25.5138 11.8946 26.1609C13.0604 26.808 13.0604 26.808 13.0604 26.808C13.0604 26.808 13.0603 26.8081 13.0603 26.8082C13.0602 26.8083 13.0601 26.8085 13.06 26.8087C13.0597 26.8092 13.0593 26.81 13.0587 26.811C13.0576 26.813 13.056 26.816 13.0538 26.8199C13.0494 26.8277 13.043 26.8394 13.0345 26.8546C13.0176 26.8851 12.9928 26.9298 12.9612 26.9867C12.898 27.1007 12.8075 27.2637 12.6984 27.4601C12.4803 27.853 12.1881 28.3795 11.8914 28.9138C11.2994 29.9803 10.6865 31.0839 10.6144 31.2127L9.45098 30.5614ZM11.8946 26.1609L10.7284 25.5146C11.2057 24.6533 12.0991 24.1702 13.0132 24.1707L13.0125 25.504L13.0118 26.8374C13.0213 26.8374 13.0295 26.8351 13.0374 26.8306C13.0471 26.825 13.0561 26.8158 13.0608 26.8072L11.8946 26.1609ZM13.0125 25.504V24.1707C13.442 24.1707 13.8782 24.2768 14.2779 24.4985L13.6312 25.6645L12.9845 26.8305C12.9873 26.832 12.9918 26.834 12.9974 26.8354C13.0028 26.8368 13.008 26.8374 13.0125 26.8374V25.504ZM13.6312 25.6645L14.2815 24.5005C14.7215 24.7463 15.091 25.1041 15.3505 25.5374L14.2065 26.2224L13.0626 26.9073C13.0436 26.8756 13.015 26.8475 12.9809 26.8285L13.6312 25.6645ZM14.2065 26.2224L15.3499 25.5364C15.8802 26.4204 15.9013 27.5267 15.3978 28.4292L14.2334 27.7797L13.069 27.1301C13.1046 27.0663 13.1053 26.9786 13.0632 26.9084L14.2065 26.2224ZM14.2334 27.7797L15.3991 28.4269L14.6948 29.6954L13.5291 29.0481L12.3634 28.4008L13.0677 27.1324L14.2334 27.7797ZM13.5618 26.6092L12.4183 27.2948C12.4652 27.373 12.5346 27.4402 12.6138 27.4846L13.2657 26.3215L13.9176 25.1584C14.2423 25.3404 14.5124 25.6017 14.7054 25.9235L13.5618 26.6092ZM13.2657 26.3215L12.6201 27.4881C13.0071 27.7023 13.5011 27.566 13.7198 27.1702L12.5528 26.5253L11.3858 25.8804C11.8839 24.979 13.0168 24.6599 13.9113 25.1549L13.2657 26.3215ZM12.5528 26.5253L13.7186 27.1724C12.0819 30.1209 11.5016 31.1667 11.2688 31.5532L10.1266 30.8655L8.98433 30.1777C9.18509 29.8443 9.72816 28.8667 11.387 25.8782L12.5528 26.5253ZM10.1266 30.8655L10.4356 29.5684L10.4406 29.5696L10.1315 30.8667L9.82251 32.1637L9.81756 32.1625L10.1266 30.8655ZM10.1315 30.8667L11.4084 31.2507C11.4065 31.257 11.382 31.3431 11.3394 31.4406C11.2965 31.5387 11.2503 31.6158 11.219 31.6655C11.1697 31.7438 11.0937 31.8517 11.0074 31.9749L9.91502 31.2104L8.82267 30.4458C8.84759 30.4102 8.86881 30.3799 8.88729 30.3534C8.90581 30.3269 8.92068 30.3055 8.9329 30.2878C8.94524 30.27 8.95347 30.2579 8.959 30.2497C8.96472 30.2412 8.96519 30.2403 8.96268 30.2442C8.95848 30.2509 8.92814 30.299 8.89649 30.3713C8.8888 30.3889 8.88189 30.4059 8.87571 30.4221C8.8696 30.4382 8.86475 30.452 8.86115 30.4628C8.85767 30.4732 8.85527 30.4809 8.85437 30.4838C8.85368 30.486 8.85326 30.4874 8.85471 30.4826L10.1315 30.8667ZM9.91502 31.2104L11.0059 31.977C10.9097 32.114 10.8115 32.2364 10.729 32.3366L9.69969 31.4891L8.67038 30.6416C8.73722 30.5604 8.7856 30.4986 8.82411 30.4438L9.91502 31.2104ZM9.69969 31.4891L10.728 32.3378C9.91347 33.3247 9.8264 34.4977 10.4787 35.5852L9.33521 36.271L8.19177 36.9568C6.95599 34.8964 7.14117 32.4944 8.67137 30.6404L9.69969 31.4891ZM9.33521 36.271L10.4786 35.5852C10.8603 36.2216 11.4985 36.6784 12.3233 36.8468L12.0566 38.1532L11.7899 39.4596C10.2743 39.1502 8.97958 38.2703 8.19179 36.9569L9.33521 36.271ZM12.0566 38.1532L12.3223 36.8466C13.1636 37.0177 14.0725 36.8633 14.8824 36.3773L15.5684 37.5207L16.2544 38.664C14.9001 39.4766 13.3154 39.7698 11.7909 39.4598L12.0566 38.1532ZM15.5684 37.5207L14.8825 36.3773L21.5495 32.3778L22.2355 33.5212L22.9214 34.6646L16.2544 38.664L15.5684 37.5207ZM22.2355 33.5212L21.5502 32.3774C21.3992 32.4679 21.2874 32.618 21.2443 32.7904L22.538 33.1134L23.8316 33.4363C23.7028 33.9522 23.3761 34.3921 22.9207 34.665L22.2355 33.5212ZM22.538 33.1134L21.2444 32.79C21.2012 32.9627 21.2295 33.1476 21.3198 33.2978L22.4628 32.6113L23.6058 31.9248C23.8789 32.3794 23.9604 32.9209 23.8315 33.4367L22.538 33.1134ZM22.4628 32.6113L21.3195 33.2973C21.5087 33.6127 21.9194 33.7196 22.241 33.5259L21.5532 32.3837L20.8653 31.2415C21.8136 30.6704 23.0409 30.9832 23.6061 31.9253L22.4628 32.6113ZM21.5532 32.3837L22.2391 33.5271L18.9502 35.5002L18.2642 34.3569L17.5783 33.2135L20.8672 31.2404L21.5532 32.3837ZM18.2642 34.3569L18.9507 35.4999C18.1429 35.985 17.0905 35.7259 16.6039 34.9126L17.748 34.228L18.8922 33.5433C18.619 33.0868 18.0294 32.9426 17.5778 33.2138L18.2642 34.3569ZM17.748 34.228L16.605 34.9144C16.1188 34.1048 16.3812 33.0547 17.1905 32.5687L17.8769 33.7118L18.5633 34.8548C19.0163 34.5828 19.1633 33.9949 18.8911 33.5415L17.748 34.228ZM17.8769 33.7118L17.191 32.5684L20.4802 30.5953L21.1661 31.7386L21.852 32.882L18.5628 34.8552L17.8769 33.7118ZM21.1661 31.7386L20.4802 30.5953L21.5484 29.9544L22.2343 31.0978L22.9202 32.2412L21.852 32.882L21.1661 31.7386ZM22.2343 31.0978L21.5478 29.9548C21.3993 30.044 21.2871 30.1926 21.2436 30.3664L22.537 30.6902L23.8304 31.014C23.7012 31.5304 23.3737 31.9688 22.9208 32.2408L22.2343 31.0978ZM22.537 30.6902L21.2434 30.3673C21.2006 30.5388 21.2282 30.7237 21.3193 30.8752L22.4619 30.1879L23.6044 29.5006C23.8784 29.9561 23.9592 30.4981 23.8307 31.0132L22.537 30.6902ZM22.4619 30.1879L21.3187 30.8742C21.509 31.1912 21.9196 31.295 22.2386 31.1035L21.5522 29.9604L20.8658 28.8173C21.8111 28.2497 23.0382 28.5575 23.605 29.5017L22.4619 30.1879ZM21.5522 29.9604L22.2381 31.1037L17.8808 33.7177L17.1948 32.5743L16.5089 31.4309L20.8663 28.817L21.5522 29.9604ZM17.1948 32.5743L17.8811 33.7175C17.0703 34.2042 16.0211 33.9403 15.5356 33.1319L16.6787 32.4455L17.8217 31.759C17.5502 31.3068 16.9623 31.1588 16.5086 31.4311L17.1948 32.5743ZM16.6787 32.4455L15.5356 33.1319C15.0488 32.3213 15.3132 31.272 16.1204 30.7866L16.8075 31.9293L17.4946 33.0719C17.9461 32.8004 18.0946 32.2134 17.8217 31.759L16.6787 32.4455ZM16.8075 31.9293L16.1216 30.7859L21.4695 27.5778L22.1554 28.7211L22.8413 29.8645L17.4934 33.0726L16.8075 31.9293ZM22.1554 28.7211L21.4688 27.5781C21.3197 27.6677 21.2075 27.8171 21.1642 27.9904L22.4579 28.3133L23.7515 28.6363C23.6225 29.1531 23.2954 29.5918 22.8419 29.8642L22.1554 28.7211ZM22.4579 28.3133L21.1643 27.99C21.1212 28.1626 21.1495 28.3469 21.2392 28.4965L22.3829 27.8113L23.5267 27.126C23.7987 27.5801 23.8803 28.121 23.7514 28.6367L22.4579 28.3133ZM22.3829 27.8113L21.2396 28.4973C21.3301 28.648 21.48 28.7596 21.6522 28.8026L21.9751 27.509L22.2981 26.2154C22.8138 26.3441 23.2535 26.6706 23.5263 27.1253L22.3829 27.8113ZM21.9751 27.509L21.6538 28.803C21.8228 28.845 22.0072 28.818 22.1586 28.7273L21.4731 27.5837L20.7876 26.4401C21.2424 26.1675 21.7821 26.0873 22.2964 26.215L21.9751 27.509ZM21.4731 27.5837L22.159 28.727L21.1691 29.321L20.4831 28.1776L19.7971 27.0343L20.7871 26.4403L21.4731 27.5837ZM20.4831 28.1776L21.169 29.321L16.8111 31.9352L16.1252 30.7918L15.4394 29.6485L19.7972 27.0342L20.4831 28.1776ZM16.1252 30.7918L16.8126 31.9344C16.0018 32.4221 14.9503 32.1588 14.4649 31.3476L15.6091 30.663L16.7532 29.9783C16.4812 29.5239 15.8915 29.3764 15.4379 29.6493L16.1252 30.7918ZM15.6091 30.663L14.466 31.3494C13.9792 30.5388 14.2436 29.4895 15.0508 29.0041L15.7379 30.1468L16.425 31.2894C16.8765 31.0179 17.025 30.4309 16.7521 29.9765L15.6091 30.663ZM15.7379 30.1468L15.052 29.0034L19.4094 26.3894L20.0953 27.5328L20.7812 28.6762L16.4238 31.2901L15.7379 30.1468ZM20.0953 27.5328L19.4088 26.3898C19.2603 26.479 19.1481 26.6276 19.1046 26.8014L20.398 27.1252L21.6915 27.449C21.5622 27.9654 21.2347 28.4038 20.7818 28.6758L20.0953 27.5328ZM20.398 27.1252L19.1047 26.8011C19.0568 26.9921 19.0982 27.1939 19.2018 27.3433L20.2977 26.5838L21.3936 25.8244C21.7205 26.2961 21.8335 26.8823 21.6914 27.4494L20.398 27.1252ZM20.2977 26.5838L19.2009 27.342C19.3302 27.529 19.5081 27.6126 19.6458 27.6373C19.7838 27.6622 19.9316 27.6395 20.0625 27.5608L19.3758 26.4179L18.689 25.2751C19.5327 24.7681 20.7539 24.8991 21.3944 25.8256L20.2977 26.5838ZM19.3758 26.4179L20.0617 27.5613L13.3995 31.558L12.7136 30.4147L12.0277 29.2713L18.6899 25.2746L19.3758 26.4179ZM12.7136 30.4147L13.3977 31.5591C12.7365 31.9543 11.8896 31.8595 11.3326 31.3219L12.2587 30.3626L13.1847 29.4033C12.8723 29.1018 12.399 29.0493 12.0295 29.2702L12.7136 30.4147ZM12.2587 30.3626L11.3326 31.3218C10.7752 30.7837 10.6502 29.9389 11.0251 29.263L12.1911 29.9098L13.357 30.5565C13.567 30.1779 13.4971 29.7049 13.1847 29.4033L12.2587 30.3626ZM12.1911 29.9098L11.0253 29.2627L12.4106 26.7668L13.5764 27.4138L14.7422 28.0609L13.3569 30.5568L12.1911 29.9098ZM13.5764 27.4138L12.4116 26.7649C12.3167 26.9354 12.3231 27.1362 12.4186 27.2953L13.5618 26.6092L14.7051 25.923C15.097 26.576 15.1141 27.3933 14.7411 28.0628L13.5764 27.4138Z" fill="#4CAF4F" mask="url(#path-3-inside-2_16_1455)"/>
<mask id="path-5-inside-3_16_1455" fill="white">
<path d="M39.6181 36.6577C38.9238 37.8157 37.7819 38.6083 36.4025 38.8901C35.0353 39.1688 33.5974 38.9117 32.353 38.1656L25.686 34.1661C25.3616 33.9715 25.1321 33.6624 25.0402 33.2953C24.949 32.9289 25.006 32.5484 25.2004 32.2243C25.3217 32.0216 25.4918 31.8619 25.689 31.7439L25.6871 31.7427C25.3627 31.5481 25.1333 31.239 25.0419 30.8724C24.95 30.5058 25.007 30.125 25.2016 29.8004C25.3269 29.5919 25.4987 29.4289 25.6947 29.3132C25.4101 29.1174 25.2051 28.8331 25.1208 28.4957C25.0289 28.1289 25.0859 27.7483 25.2805 27.4242C25.4749 27.0997 25.7842 26.8705 26.1508 26.7789C26.2653 26.7501 26.3815 26.736 26.4965 26.736C26.7222 26.7362 26.9436 26.7935 27.1472 26.9C27.1597 26.6363 27.2381 26.3774 27.3922 26.1552C27.8146 25.5458 28.6609 25.3771 29.3201 25.7726L34.7796 29.0474L34.0759 27.7799C33.8059 27.296 33.8158 26.699 34.1021 26.2216C34.2415 25.9893 34.4408 25.7964 34.679 25.6628C34.8748 25.5544 35.0869 25.5031 35.296 25.5031C35.7453 25.5033 36.1817 25.7403 36.4139 26.1599C37.2235 27.6185 38.7511 30.3694 38.8585 30.5614C38.8813 30.5946 38.9504 30.6936 39.0095 30.7777C39.0658 30.8575 39.1266 30.9339 39.1895 31.0097C40.5527 32.6622 40.7172 34.8262 39.6181 36.6577ZM38.6091 31.4892C38.5341 31.3985 38.4606 31.3059 38.3937 31.2105C38.1902 30.9217 38.185 30.9141 38.1697 30.8385C37.9317 30.4448 37.3512 29.3997 35.7555 26.5249C35.6156 26.2726 35.2975 26.1805 35.0443 26.3204C34.9196 26.3901 34.8195 26.4874 34.7465 26.6093C34.5985 26.8559 34.5928 27.1641 34.7326 27.4143L36.1174 29.9095C36.2001 30.0584 36.1725 30.2441 36.0503 30.3623C35.9282 30.4808 35.7416 30.5016 35.5951 30.4144L28.9329 26.4177C28.6189 26.2295 28.2049 26.3032 28.0108 26.5836C27.8991 26.7447 27.8635 26.937 27.9102 27.1247C27.9531 27.2963 28.0607 27.4409 28.2132 27.5323L28.2143 27.5333L32.5703 30.1465C32.7484 30.2535 32.8062 30.4844 32.6992 30.6627C32.5922 30.8406 32.3616 30.8988 32.183 30.7916L26.8352 27.5835C26.6834 27.4925 26.5048 27.4657 26.3333 27.5088C26.1613 27.5517 26.0167 27.6591 25.9255 27.8115C25.8341 27.9635 25.8077 28.1418 25.8501 28.3133C25.893 28.4849 26.0007 28.6297 26.1529 28.7212L27.1935 29.3453L31.5005 31.9293C31.6786 32.0363 31.7363 32.2672 31.6293 32.4455C31.5224 32.6234 31.2917 32.6814 31.1131 32.5744L26.7562 29.9604C26.4429 29.7719 26.0348 29.8742 25.8464 30.188C25.755 30.3402 25.7286 30.5186 25.771 30.6901C25.8139 30.8616 25.9215 31.0062 26.0739 31.0979L27.1422 31.7387L30.4308 33.7119C30.609 33.8188 30.6667 34.0497 30.5597 34.2281C30.4528 34.4059 30.2221 34.4644 30.0435 34.3569L26.7548 32.3838C26.6031 32.2928 26.4252 32.266 26.2528 32.3091C26.0813 32.352 25.9361 32.4594 25.845 32.6114C25.7538 32.7636 25.7272 32.9421 25.7696 33.1134C25.8124 33.2849 25.9201 33.4296 26.0725 33.5212L32.7395 37.5207C33.8214 38.1698 35.0691 38.3945 36.2514 38.1533C37.4213 37.9144 38.3878 37.246 38.9725 36.2711C39.9175 34.6968 39.7812 32.9092 38.6091 31.4892Z"/>
</mask>
<path d="M39.6181 36.6577C38.9238 37.8157 37.7819 38.6083 36.4025 38.8901C35.0353 39.1688 33.5974 38.9117 32.353 38.1656L25.686 34.1661C25.3616 33.9715 25.1321 33.6624 25.0402 33.2953C24.949 32.9289 25.006 32.5484 25.2004 32.2243C25.3217 32.0216 25.4918 31.8619 25.689 31.7439L25.6871 31.7427C25.3627 31.5481 25.1333 31.239 25.0419 30.8724C24.95 30.5058 25.007 30.125 25.2016 29.8004C25.3269 29.5919 25.4987 29.4289 25.6947 29.3132C25.4101 29.1174 25.2051 28.8331 25.1208 28.4957C25.0289 28.1289 25.0859 27.7483 25.2805 27.4242C25.4749 27.0997 25.7842 26.8705 26.1508 26.7789C26.2653 26.7501 26.3815 26.736 26.4965 26.736C26.7222 26.7362 26.9436 26.7935 27.1472 26.9C27.1597 26.6363 27.2381 26.3774 27.3922 26.1552C27.8146 25.5458 28.6609 25.3771 29.3201 25.7726L34.7796 29.0474L34.0759 27.7799C33.8059 27.296 33.8158 26.699 34.1021 26.2216C34.2415 25.9893 34.4408 25.7964 34.679 25.6628C34.8748 25.5544 35.0869 25.5031 35.296 25.5031C35.7453 25.5033 36.1817 25.7403 36.4139 26.1599C37.2235 27.6185 38.7511 30.3694 38.8585 30.5614C38.8813 30.5946 38.9504 30.6936 39.0095 30.7777C39.0658 30.8575 39.1266 30.9339 39.1895 31.0097C40.5527 32.6622 40.7172 34.8262 39.6181 36.6577ZM38.6091 31.4892C38.5341 31.3985 38.4606 31.3059 38.3937 31.2105C38.1902 30.9217 38.185 30.9141 38.1697 30.8385C37.9317 30.4448 37.3512 29.3997 35.7555 26.5249C35.6156 26.2726 35.2975 26.1805 35.0443 26.3204C34.9196 26.3901 34.8195 26.4874 34.7465 26.6093C34.5985 26.8559 34.5928 27.1641 34.7326 27.4143L36.1174 29.9095C36.2001 30.0584 36.1725 30.2441 36.0503 30.3623C35.9282 30.4808 35.7416 30.5016 35.5951 30.4144L28.9329 26.4177C28.6189 26.2295 28.2049 26.3032 28.0108 26.5836C27.8991 26.7447 27.8635 26.937 27.9102 27.1247C27.9531 27.2963 28.0607 27.4409 28.2132 27.5323L28.2143 27.5333L32.5703 30.1465C32.7484 30.2535 32.8062 30.4844 32.6992 30.6627C32.5922 30.8406 32.3616 30.8988 32.183 30.7916L26.8352 27.5835C26.6834 27.4925 26.5048 27.4657 26.3333 27.5088C26.1613 27.5517 26.0167 27.6591 25.9255 27.8115C25.8341 27.9635 25.8077 28.1418 25.8501 28.3133C25.893 28.4849 26.0007 28.6297 26.1529 28.7212L27.1935 29.3453L31.5005 31.9293C31.6786 32.0363 31.7363 32.2672 31.6293 32.4455C31.5224 32.6234 31.2917 32.6814 31.1131 32.5744L26.7562 29.9604C26.4429 29.7719 26.0348 29.8742 25.8464 30.188C25.755 30.3402 25.7286 30.5186 25.771 30.6901C25.8139 30.8616 25.9215 31.0062 26.0739 31.0979L27.1422 31.7387L30.4308 33.7119C30.609 33.8188 30.6667 34.0497 30.5597 34.2281C30.4528 34.4059 30.2221 34.4644 30.0435 34.3569L26.7548 32.3838C26.6031 32.2928 26.4252 32.266 26.2528 32.3091C26.0813 32.352 25.9361 32.4594 25.845 32.6114C25.7538 32.7636 25.7272 32.9421 25.7696 33.1134C25.8124 33.2849 25.9201 33.4296 26.0725 33.5212L32.7395 37.5207C33.8214 38.1698 35.0691 38.3945 36.2514 38.1533C37.4213 37.9144 38.3878 37.246 38.9725 36.2711C39.9175 34.6968 39.7812 32.9092 38.6091 31.4892Z" fill="#4CAF4F"/>
<path d="M39.6181 36.6577L38.4746 35.9721L38.4748 35.9717L39.6181 36.6577ZM36.4025 38.8901L36.6693 40.1964L36.6688 40.1965L36.4025 38.8901ZM32.353 38.1656L31.6673 39.3091L31.6671 39.309L32.353 38.1656ZM25.686 34.1661L26.3718 33.0227L26.3719 33.0227L25.686 34.1661ZM25.0402 33.2953L23.7468 33.619L23.7463 33.6173L25.0402 33.2953ZM25.2004 32.2243L26.3443 32.9093L26.3439 32.9099L25.2004 32.2243ZM25.689 31.7439L26.3958 30.6133L28.2439 31.7686L26.3738 32.8879L25.689 31.7439ZM25.6871 31.7427L26.373 30.5993L26.3835 30.6056L26.3939 30.6121L25.6871 31.7427ZM25.0419 30.8724L26.3352 30.5482L26.3356 30.5498L25.0419 30.8724ZM25.2016 29.8004L24.058 29.1149L24.0588 29.1135L25.2016 29.8004ZM25.6947 29.3132L26.4504 28.2147L28.1724 29.3993L26.3723 30.4615L25.6947 29.3132ZM25.1208 28.4957L26.4142 28.1717L26.4143 28.1723L25.1208 28.4957ZM25.2805 27.4242L26.4243 28.1094L26.4237 28.1104L25.2805 27.4242ZM26.1508 26.7789L26.4755 28.0721L26.4742 28.0724L26.1508 26.7789ZM26.4965 26.736L26.4965 25.4026L26.4978 25.4027L26.4965 26.736ZM27.1472 26.9L28.479 26.963L28.3802 29.0498L26.5291 28.0814L27.1472 26.9ZM27.3922 26.1552L28.488 26.9148L28.4879 26.915L27.3922 26.1552ZM29.3201 25.7726L28.6342 26.916L28.6341 26.9159L29.3201 25.7726ZM34.7796 29.0474L35.9454 28.4002L38.3604 32.7501L34.0938 30.1908L34.7796 29.0474ZM34.0759 27.7799L35.2403 27.1302L35.2416 27.1327L34.0759 27.7799ZM34.1021 26.2216L32.9586 25.5359L32.9589 25.5353L34.1021 26.2216ZM34.679 25.6628L34.0268 24.4998L34.0333 24.4963L34.679 25.6628ZM35.296 25.5031L35.296 24.1697L35.2967 24.1697L35.296 25.5031ZM36.4139 26.1599L35.2481 26.807L35.2474 26.8056L36.4139 26.1599ZM38.8585 30.5614L37.76 31.3171L37.725 31.2662L37.6948 31.2123L38.8585 30.5614ZM39.0095 30.7777L37.9198 31.546L37.9188 31.5446L39.0095 30.7777ZM39.1895 31.0097L40.2159 30.1587L40.218 30.1613L39.1895 31.0097ZM38.6091 31.4892L39.6371 30.6401L39.6373 30.6404L38.6091 31.4892ZM38.3937 31.2105L39.4836 30.4424L39.4854 30.445L38.3937 31.2105ZM38.1697 30.8385L39.3108 30.1488L39.4305 30.3469L39.4765 30.5739L38.1697 30.8385ZM35.7555 26.5249L34.5897 27.172L34.5895 27.1716L35.7555 26.5249ZM35.0443 26.3204L34.3932 25.1568L34.3994 25.1534L35.0443 26.3204ZM34.7465 26.6093L35.89 27.2949L35.8899 27.2951L34.7465 26.6093ZM34.7326 27.4143L35.8967 26.7643L35.8984 26.7673L34.7326 27.4143ZM36.1174 29.9095L34.9518 30.5569L34.9516 30.5566L36.1174 29.9095ZM36.0503 30.3623L35.1214 29.4058L35.1233 29.404L36.0503 30.3623ZM35.5951 30.4144L34.9134 31.5603L34.9092 31.5578L35.5951 30.4144ZM28.9329 26.4177L29.6184 25.2741L29.6188 25.2743L28.9329 26.4177ZM28.0108 26.5836L29.1069 27.3426L29.1067 27.343L28.0108 26.5836ZM27.9102 27.1247L26.6167 27.4481L26.6162 27.4462L27.9102 27.1247ZM28.2132 27.5323L28.8989 26.3888L28.9759 26.435L29.046 26.4911L28.2132 27.5323ZM28.2143 27.5333L27.5284 28.6766L27.4515 28.6305L27.3815 28.5745L28.2143 27.5333ZM32.5703 30.1465L33.2562 29.0031L33.2568 29.0034L32.5703 30.1465ZM32.6992 30.6627L33.8426 31.3485L33.8419 31.3498L32.6992 30.6627ZM32.183 30.7916L32.8689 29.6482L32.8692 29.6484L32.183 30.7916ZM26.8352 27.5835L27.5206 26.4398L27.5211 26.4401L26.8352 27.5835ZM26.3333 27.5088L26.6584 28.8019L26.6559 28.8025L26.3333 27.5088ZM25.9255 27.8115L27.0698 28.496L27.0681 28.4988L25.9255 27.8115ZM25.8501 28.3133L24.5566 28.6367L24.5558 28.6334L25.8501 28.3133ZM26.1529 28.7212L25.4671 29.8646L25.4664 29.8642L26.1529 28.7212ZM27.1935 29.3453L27.8793 28.2018L27.8795 28.2019L27.1935 29.3453ZM31.5005 31.9293L32.1864 30.786L32.1869 30.7863L31.5005 31.9293ZM31.6293 32.4455L32.7728 33.1313L32.772 33.1326L31.6293 32.4455ZM31.1131 32.5744L30.428 33.7182L30.4272 33.7177L31.1131 32.5744ZM26.7562 29.9604L26.0703 31.1038L26.069 31.103L26.7562 29.9604ZM25.8464 30.188L26.9894 30.8745L26.9894 30.8745L25.8464 30.188ZM25.771 30.6901L24.4774 31.0134L24.4766 31.0101L25.771 30.6901ZM26.0739 31.0979L25.388 32.2413L25.3869 32.2406L26.0739 31.0979ZM27.1422 31.7387L27.8281 30.5953L27.8281 30.5954L27.1422 31.7387ZM30.4308 33.7119L31.1168 32.5685L31.1173 32.5688L30.4308 33.7119ZM30.5597 34.2281L31.7032 34.9138L31.7024 34.9152L30.5597 34.2281ZM30.0435 34.3569L30.7295 33.2136L30.7309 33.2144L30.0435 34.3569ZM26.7548 32.3838L27.4403 31.2401L27.4408 31.2404L26.7548 32.3838ZM26.2528 32.3091L25.9294 31.0156L25.9294 31.0156L26.2528 32.3091ZM25.845 32.6114L24.7012 31.9262L24.7016 31.9254L25.845 32.6114ZM25.7696 33.1134L24.476 33.4368L24.4753 33.4339L25.7696 33.1134ZM26.0725 33.5212L25.3866 34.6646L25.3855 34.6639L26.0725 33.5212ZM32.7395 37.5207L33.4254 36.3773L33.4255 36.3774L32.7395 37.5207ZM36.2514 38.1533L36.5181 39.4597L36.518 39.4597L36.2514 38.1533ZM38.9725 36.2711L37.8291 35.5853L37.8293 35.5849L38.9725 36.2711ZM39.6181 36.6577L40.7616 37.3434C39.8659 38.8373 38.3972 39.8434 36.6693 40.1964L36.4025 38.8901L36.1356 37.5837C37.1665 37.3731 37.9817 36.7941 38.4746 35.9721L39.6181 36.6577ZM36.4025 38.8901L36.6688 40.1965C34.9612 40.5446 33.1852 40.2192 31.6673 39.3091L32.353 38.1656L33.0386 37.022C34.0096 37.6042 35.1093 37.7929 36.1361 37.5836L36.4025 38.8901ZM32.353 38.1656L31.6671 39.309L25.0001 35.3095L25.686 34.1661L26.3719 33.0227L33.0389 37.0222L32.353 38.1656ZM25.686 34.1661L25.0001 35.3095C24.3731 34.9334 23.9247 34.3298 23.7468 33.619L25.0402 33.2953L26.3336 32.9716C26.3373 32.986 26.3423 32.995 26.3468 33.001C26.3512 33.0071 26.3586 33.0147 26.3718 33.0227L25.686 34.1661ZM25.0402 33.2953L23.7463 33.6173C23.5697 32.9076 23.6814 32.1648 24.0569 31.5386L25.2004 32.2243L26.3439 32.9099C26.336 32.9232 26.333 32.9336 26.3319 32.9413C26.3307 32.949 26.3306 32.9592 26.3341 32.9733L25.0402 33.2953ZM25.2004 32.2243L24.0565 31.5392C24.3037 31.1264 24.6415 30.8169 25.0043 30.5998L25.689 31.7439L26.3738 32.8879C26.3576 32.8976 26.3489 32.9052 26.3455 32.9086C26.3423 32.9116 26.3428 32.9118 26.3443 32.9093L25.2004 32.2243ZM25.689 31.7439L24.9823 32.8745L24.9804 32.8733L25.6871 31.7427L26.3939 30.6121L26.3958 30.6133L25.689 31.7439ZM25.6871 31.7427L25.0013 32.8861C24.3746 32.5101 23.9255 31.9064 23.7481 31.1949L25.0419 30.8724L26.3356 30.5498C26.339 30.5634 26.3437 30.5719 26.348 30.5777C26.3524 30.5836 26.3597 30.5913 26.373 30.5993L25.6871 31.7427ZM25.0419 30.8724L23.7485 31.1965C23.5702 30.4852 23.6824 29.7414 24.058 29.1149L25.2016 29.8004L26.3452 30.486C26.337 30.4996 26.3341 30.51 26.333 30.5174C26.3319 30.5248 26.3318 30.5346 26.3352 30.5482L25.0419 30.8724ZM25.2016 29.8004L24.0588 29.1135C24.305 28.704 24.6413 28.3866 25.0171 28.1649L25.6947 29.3132L26.3723 30.4615C26.3637 30.4666 26.3578 30.4714 26.3539 30.4752C26.3503 30.4788 26.3472 30.4826 26.3443 30.4874L25.2016 29.8004ZM25.6947 29.3132L24.939 30.4117C24.4005 30.0412 23.9944 29.4876 23.8273 28.819L25.1208 28.4957L26.4143 28.1723C26.4159 28.1786 26.418 28.1831 26.4214 28.1879C26.4252 28.1932 26.4335 28.2031 26.4504 28.2147L25.6947 29.3132ZM25.1208 28.4957L23.8274 28.8196C23.6493 28.1084 23.7611 27.3646 24.1373 26.7379L25.2805 27.4242L26.4237 28.1104C26.4158 28.1236 26.413 28.1336 26.4119 28.1408C26.4109 28.1479 26.4107 28.1577 26.4142 28.1717L25.1208 28.4957ZM25.2805 27.4242L24.1368 26.7389C24.5131 26.1108 25.1176 25.6628 25.8275 25.4853L26.1508 26.7789L26.4742 28.0724C26.4599 28.076 26.4511 28.0809 26.4451 28.0853C26.4392 28.0897 26.4319 28.0968 26.4243 28.1094L25.2805 27.4242ZM26.1508 26.7789L25.8262 25.4857C26.0471 25.4302 26.2723 25.4026 26.4965 25.4026V26.736V28.0693C26.4907 28.0693 26.4836 28.07 26.4755 28.0721L26.1508 26.7789ZM26.4965 26.736L26.4978 25.4027C26.9508 25.4031 27.3827 25.5184 27.7653 25.7185L27.1472 26.9L26.5291 28.0814C26.5164 28.0747 26.5073 28.0718 26.5023 28.0705C26.4974 28.0693 26.4952 28.0693 26.4951 28.0693L26.4965 26.736ZM27.1472 26.9L25.8153 26.8369C25.8383 26.352 25.9845 25.8454 26.2965 25.3954L27.3922 26.1552L28.4879 26.915C28.4917 26.9094 28.481 26.9207 28.479 26.963L27.1472 26.9ZM27.3922 26.1552L26.2964 25.3957C27.1409 24.1772 28.7782 23.8925 30.0061 24.6293L29.3201 25.7726L28.6341 26.9159C28.5952 26.8926 28.5571 26.8889 28.5272 26.8948C28.498 26.9006 28.49 26.9119 28.488 26.9148L27.3922 26.1552ZM29.3201 25.7726L30.006 24.6292L35.4655 27.904L34.7796 29.0474L34.0938 30.1908L28.6342 26.916L29.3201 25.7726ZM34.7796 29.0474L33.6139 29.6946L32.9102 28.4271L34.0759 27.7799L35.2416 27.1327L35.9454 28.4002L34.7796 29.0474ZM34.0759 27.7799L32.9115 28.4295C32.4079 27.5269 32.428 26.4206 32.9586 25.5359L34.1021 26.2216L35.2455 26.9074C35.2036 26.9773 35.2039 27.065 35.2403 27.1302L34.0759 27.7799ZM34.1021 26.2216L32.9589 25.5353C33.219 25.1022 33.5883 24.7458 34.0268 24.4999L34.679 25.6628L35.3312 26.8257C35.2934 26.847 35.2641 26.8765 35.2452 26.908L34.1021 26.2216ZM34.679 25.6628L34.0333 24.4963C34.4322 24.2754 34.8674 24.1697 35.296 24.1697V25.5031V26.8364C35.3006 26.8364 35.3059 26.8358 35.3115 26.8344C35.3173 26.8329 35.3219 26.8309 35.3248 26.8293L34.679 25.6628ZM35.296 25.5031L35.2967 24.1697C36.2079 24.1702 37.1026 24.6509 37.5805 25.5142L36.4139 26.1599L35.2474 26.8056C35.2495 26.8094 35.253 26.8144 35.2579 26.8194C35.2626 26.8241 35.2674 26.8276 35.2716 26.83C35.2792 26.8344 35.2867 26.8364 35.2953 26.8364L35.296 25.5031ZM36.4139 26.1599L37.5798 25.5129C38.3902 26.9733 39.9162 29.721 40.0222 29.9105L38.8585 30.5614L37.6948 31.2123C37.586 31.0177 36.0567 28.2638 35.2481 26.807L36.4139 26.1599ZM38.8585 30.5614L39.957 29.8057C39.9758 29.8331 40.0416 29.9275 40.1002 30.0108L39.0095 30.7777L37.9188 31.5446C37.8591 31.4597 37.7869 31.3562 37.76 31.3171L38.8585 30.5614ZM39.0095 30.7777L40.0992 30.0094C40.1268 30.0485 40.1628 30.0946 40.2159 30.1587L39.1895 31.0097L38.1631 31.8608C38.0904 31.7731 38.0048 31.6666 37.9198 31.546L39.0095 30.7777ZM39.1895 31.0097L40.218 30.1613C41.939 32.2474 42.1523 35.0259 40.7614 37.3438L39.6181 36.6577L38.4748 35.9717C39.2821 34.6264 39.1664 33.077 38.161 31.8582L39.1895 31.0097ZM38.6091 31.4892L37.5811 32.3383C37.4968 32.2363 37.3981 32.113 37.3021 31.976L38.3937 31.2105L39.4854 30.445C39.5232 30.4988 39.5715 30.5607 39.6371 30.6401L38.6091 31.4892ZM38.3937 31.2105L37.3038 31.9786C37.2199 31.8595 37.1297 31.733 37.0698 31.6339C37.0297 31.5676 36.9761 31.4707 36.9309 31.3474C36.8868 31.2273 36.8672 31.1244 36.8629 31.1031L38.1697 30.8385L39.4765 30.5739C39.4798 30.5904 39.4666 30.5168 39.4342 30.4284C39.4005 30.3368 39.3638 30.2741 39.3524 30.2552C39.347 30.2462 39.3449 30.2433 39.3491 30.2497C39.3531 30.2557 39.3602 30.2662 39.3722 30.2836C39.3971 30.3196 39.4313 30.3681 39.4836 30.4424L38.3937 31.2105ZM38.1697 30.8385L37.0286 31.5282C36.7739 31.1068 36.1743 30.0267 34.5897 27.172L35.7555 26.5249L36.9213 25.8778C38.5282 28.7727 39.0896 29.7829 39.3108 30.1488L38.1697 30.8385ZM35.7555 26.5249L34.5895 27.1716C34.8054 27.5609 35.2969 27.7041 35.6891 27.4874L35.0443 26.3204L34.3994 25.1534C35.2981 24.6568 36.4258 24.9843 36.9215 25.8782L35.7555 26.5249ZM35.0443 26.3204L35.6953 27.484C35.7737 27.4401 35.8434 27.3727 35.89 27.2949L34.7465 26.6093L33.6029 25.9236C33.7956 25.6022 34.0656 25.3401 34.3932 25.1568L35.0443 26.3204ZM34.7465 26.6093L35.8899 27.2951C35.9854 27.1359 35.9918 26.9346 35.8967 26.7643L34.7326 27.4143L33.5684 28.0643C33.1939 27.3936 33.2117 26.5759 33.603 25.9234L34.7465 26.6093ZM34.7326 27.4143L35.8984 26.7673L37.2832 29.2625L36.1174 29.9095L34.9516 30.5566L33.5667 28.0613L34.7326 27.4143ZM36.1174 29.9095L37.283 29.2622C37.6584 29.9381 37.5337 30.7825 36.9772 31.3207L36.0503 30.3623L35.1233 29.404C34.8113 29.7057 34.7418 30.1788 34.9518 30.5569L36.1174 29.9095ZM36.0503 30.3623L36.9791 31.3189C36.4182 31.8636 35.57 31.9509 34.9134 31.5603L35.5951 30.4144L36.2767 29.2685C35.9132 29.0522 35.4383 29.0981 35.1214 29.4058L36.0503 30.3623ZM35.5951 30.4144L34.9092 31.5578L28.247 27.5611L28.9329 26.4177L29.6188 25.2743L36.281 29.271L35.5951 30.4144ZM28.9329 26.4177L28.2474 27.5613C28.3775 27.6393 28.5244 27.662 28.6622 27.6373C28.8001 27.6126 28.9779 27.5291 29.1069 27.3426L28.0108 26.5836L26.9146 25.8245C27.5564 24.8977 28.7766 24.7695 29.6184 25.2741L28.9329 26.4177ZM28.0108 26.5836L29.1067 27.343C29.2108 27.1928 29.251 26.9919 29.2042 26.8033L27.9102 27.1247L26.6162 27.4462C26.476 26.882 26.5874 26.2966 26.9149 25.8241L28.0108 26.5836ZM27.9102 27.1247L29.2037 26.8014C29.16 26.6267 29.0472 26.4778 28.8989 26.3888L28.2132 27.5323L27.5274 28.6758C27.0743 28.4041 26.7461 27.9658 26.6167 27.4481L27.9102 27.1247ZM28.2132 27.5323L29.046 26.4911L29.0472 26.492L28.2143 27.5333L27.3815 28.5745L27.3803 28.5736L28.2132 27.5323ZM28.2143 27.5333L28.9003 26.3899L33.2562 29.0031L32.5703 30.1465L31.8844 31.2899L27.5284 28.6766L28.2143 27.5333ZM32.5703 30.1465L33.2568 29.0034C34.0661 29.4895 34.3281 30.5391 33.8426 31.3485L32.6992 30.6627L31.5557 29.9769C31.2843 30.4296 31.4307 31.0174 31.8839 31.2896L32.5703 30.1465ZM32.6992 30.6627L33.8419 31.3498C33.357 32.1562 32.3086 32.4221 31.4968 31.9347L32.183 30.7916L32.8692 29.6484C32.4146 29.3755 31.8275 29.525 31.5565 29.9756L32.6992 30.6627ZM32.183 30.7916L31.4971 31.935L26.1493 28.7268L26.8352 27.5835L27.5211 26.4401L32.8689 29.6482L32.183 30.7916ZM26.8352 27.5835L26.1497 28.7271C26.2995 28.8169 26.4842 28.8457 26.6584 28.8019L26.3333 27.5088L26.0083 26.2157C26.5255 26.0857 27.0674 26.1682 27.5206 26.4398L26.8352 27.5835ZM26.3333 27.5088L26.6559 28.8025C26.829 28.7593 26.9795 28.6468 27.0698 28.496L25.9255 27.8115L24.7813 27.1271C25.0538 26.6714 25.4937 26.344 26.0108 26.215L26.3333 27.5088ZM25.9255 27.8115L27.0681 28.4988C27.1596 28.3466 27.1863 28.1625 27.1445 27.9933L25.8501 28.3133L24.5558 28.6334C24.4291 28.1212 24.5086 27.5804 24.783 27.1242L25.9255 27.8115ZM25.8501 28.3133L27.1436 27.99C27.1002 27.8163 26.9881 27.6674 26.8394 27.5781L26.1529 28.7212L25.4664 29.8642C25.0133 29.592 24.6858 29.1534 24.5566 28.6367L25.8501 28.3133ZM26.1529 28.7212L26.8386 27.5777L27.8793 28.2018L27.1935 29.3453L26.5077 30.4887L25.4671 29.8646L26.1529 28.7212ZM27.1935 29.3453L27.8795 28.2019L32.1864 30.786L31.5005 31.9293L30.8145 33.0727L26.5075 30.4886L27.1935 29.3453ZM31.5005 31.9293L32.1869 30.7863C32.9963 31.2723 33.2582 32.322 32.7728 33.1313L31.6293 32.4455L30.4859 31.7597C30.2144 32.2124 30.3608 32.8002 30.814 33.0724L31.5005 31.9293ZM31.6293 32.4455L32.772 33.1326C32.2864 33.9403 31.2381 34.2035 30.428 33.7182L31.1131 32.5744L31.7983 31.4306C31.3453 31.1593 30.7584 31.3065 30.4867 31.7584L31.6293 32.4455ZM31.1131 32.5744L30.4272 33.7177L26.0703 31.1038L26.7562 29.9604L27.4422 28.8171L31.7991 31.4311L31.1131 32.5744ZM26.7562 29.9604L26.069 31.103C26.3892 31.2956 26.7999 31.1901 26.9894 30.8745L25.8464 30.188L24.7033 29.5015C25.2698 28.5583 26.4966 28.2483 27.4435 28.8179L26.7562 29.9604ZM25.8464 30.188L26.9894 30.8745C27.0803 30.7232 27.1072 30.5394 27.0653 30.37L25.771 30.6901L24.4766 31.0101C24.3499 30.4977 24.4296 29.9572 24.7034 29.5015L25.8464 30.188ZM25.771 30.6901L27.0645 30.3667C27.0208 30.1919 26.908 30.0436 26.761 29.9552L26.0739 31.0979L25.3869 32.2406C24.935 31.9689 24.6069 31.5313 24.4774 31.0134L25.771 30.6901ZM26.0739 31.0979L26.7599 29.9545L27.8281 30.5953L27.1422 31.7387L26.4562 32.8821L25.388 32.2413L26.0739 31.0979ZM27.1422 31.7387L27.8281 30.5954L31.1168 32.5685L30.4308 33.7119L29.7449 34.8552L26.4562 32.8821L27.1422 31.7387ZM30.4308 33.7119L31.1173 32.5688C31.9267 33.0549 32.1886 34.1045 31.7032 34.9138L30.5597 34.2281L29.4163 33.5423C29.1448 33.9949 29.2912 34.5828 29.7444 34.8549L30.4308 33.7119ZM30.5597 34.2281L31.7024 34.9152C31.2182 35.7203 30.1698 35.9889 29.3562 35.4994L30.0435 34.3569L30.7309 33.2144C30.2744 32.9398 29.6873 33.0916 29.4171 33.541L30.5597 34.2281ZM30.0435 34.3569L29.3575 35.5003L26.0689 33.5271L26.7548 32.3838L27.4408 31.2404L30.7295 33.2136L30.0435 34.3569ZM26.7548 32.3838L26.0694 33.5274C26.2195 33.6174 26.4043 33.6456 26.5761 33.6026L26.2528 32.3091L25.9294 31.0156C26.4461 30.8864 26.9867 30.9683 27.4403 31.2401L26.7548 32.3838ZM26.2528 32.3091L26.5761 33.6026C26.7477 33.5597 26.8975 33.4486 26.9883 33.2974L25.845 32.6114L24.7016 31.9254C24.9747 31.4702 25.4148 31.1442 25.9294 31.0156L26.2528 32.3091ZM25.845 32.6114L26.9887 33.2966C27.0783 33.147 27.1062 32.9641 27.0638 32.793L25.7696 33.1134L24.4753 33.4339C24.3481 32.9202 24.4292 32.3801 24.7012 31.9262L25.845 32.6114ZM25.7696 33.1134L27.0631 32.79C27.0194 32.6152 26.9066 32.4669 26.7596 32.3785L26.0725 33.5212L25.3855 34.6639C24.9336 34.3923 24.6055 33.9546 24.476 33.4368L25.7696 33.1134ZM26.0725 33.5212L26.7584 32.3779L33.4254 36.3773L32.7395 37.5207L32.0536 38.6641L25.3866 34.6646L26.0725 33.5212ZM32.7395 37.5207L33.4255 36.3774C34.2358 36.8635 35.1453 37.0182 35.9848 36.8469L36.2514 38.1533L36.518 39.4597C34.993 39.7709 33.4071 39.4761 32.0536 38.6641L32.7395 37.5207ZM36.2514 38.1533L35.9846 36.8469C36.8092 36.6785 37.4474 36.2217 37.8291 35.5853L38.9725 36.2711L40.116 36.9569C39.3282 38.2703 38.0335 39.1502 36.5181 39.4597L36.2514 38.1533ZM38.9725 36.2711L37.8293 35.5849C38.4822 34.4972 38.395 33.3243 37.5808 32.338L38.6091 31.4892L39.6373 30.6404C41.1674 32.494 41.3528 34.8964 40.1157 36.9573L38.9725 36.2711Z" fill="#4CAF4F" mask="url(#path-5-inside-3_16_1455)"/>
</svg>
